<?xml version="1.0" encoding="utf-8"?>
<svg id="master-artboard" viewBox="0 0 350 250" version="1.1" xmlns="http://www.w3.org/2000/svg" x="0px" y="0px" style="enable-background:new 0 0 1400 980;" width="350px" height="250px"><rect id="ee-background" x="0" y="0" width="350" height="250" style="fill: white; fill-opacity: 0; pointer-events: none;"/>

<path class="st0" d="M1158.5,343.6c-1.1-7.2-15.6-7.2-18.9-20c-3.3-12.8-2.8-37.8-2.8-49.5c0-11.7-4.4-23.3-8.9-24.5&#10;&#9;&#9;c-4.4-1.1,0.6,22.2,0.6,34.5s-3.3,27.2-7.8,30c-4.4,2.8-50.6-20.6-60-24.5c-9.4-3.9-26.7-17.8-28.9-31.1&#10;&#9;&#9;c-2.2-13.3,25.6-39.4,45-48.3c7.2-3.3-13.9-8.3-45.6,16.1c0,0-3.5-46.6,22.2-89.5c5-8.3-14.4,5-28.3,37.2&#10;&#9;&#9;c-13.9,32.2-26.7,94.5,2.2,118.9c28.9,24.5,60.6,34.5,76.1,38.9s27.2,14.4,28.3,22.2c1.1,7.8,2.2,10.6,8.3,12.8&#10;&#9;&#9;C1146.3,369.1,1159.7,350.8,1158.5,343.6z" style="fill: rgb(29, 233, 182); fill-opacity: 1;" transform="matrix(1, 0, 0, 1, -995.8552839776364, -125.58739846486853)"/><path class="st0" d="M1184.9,343.6c1.1-7.2,15.6-7.2,18.9-20c3.3-12.8,2.8-37.8,2.8-49.5c0-11.7,4.4-23.3,8.9-24.5&#10;&#9;&#9;c4.4-1.1-0.6,22.2-0.6,34.5s3.3,27.2,7.8,30c4.4,2.8,50.6-20.6,60-24.5c9.4-3.9,26.7-17.8,28.9-31.1c2.2-13.3-25.6-39.4-45-48.3&#10;&#9;&#9;c-7.2-3.3,13.9-8.3,45.6,16.1c0,0,3.5-46.6-22.2-89.5c-5-8.3,14.4,5,28.3,37.2c13.9,32.2,26.7,94.5-2.2,118.9&#10;&#9;&#9;c-28.9,24.5-60.6,34.5-76.1,38.9s-27.2,14.4-28.3,22.2c-1.1,7.8-2.2,10.6-8.3,12.8C1197.1,369.1,1183.8,350.8,1184.9,343.6z" style="fill: rgb(29, 233, 182); fill-opacity: 1;" transform="matrix(1, 0, 0, 1, -995.8552839776364, -125.58739846486853)"/>

</svg>